<?xml version="1.0" encoding="UTF-8"?><svg id="a" xmlns="http://www.w3.org/2000/svg" viewBox="0 0 498.52 600.99"><defs><style>.b{fill:#d71a20;}.c{fill:#fff;}.d{fill:none;stroke:#000;stroke-miterlimit:10;stroke-width:25px;}</style></defs><path class="c" d="M193.76,16.18V245.18H32.34c.57-6.3,1.11-12.91,1.59-19.87,6.95-100.3-13.91-178.75-13.91-178.75,0,0,76.5-21.45,173.74-30.38Z"/><path class="c" d="M468.82,245.18h-165.25V13.69c98.07,6.03,178.99,32.87,178.99,32.87,0,0-10.67,30.78-15.64,92.35-2.33,28.9-.94,68.29,1.9,106.27Z"/><path class="c" d="M453.02,491.47c-24.64,33.29-112.85,61.96-149.45,72.55v-214.36l177.25,1.78c6.96,41.71,8.94,90.37-27.8,140.03Z"/><path class="c" d="M193.76,349.66v214.34c-26.01-10.77-61.43-25.17-106.2-42.74-65.35-25.65-70.52-86.4-74.49-126.12-1.51-15.12,.14-28.8,3.16-45.48H193.76Z"/><path class="b" d="M480.82,351.44l-177.25-1.78v214.36c-4.23,1.22-7.77,2.2-10.44,2.92-25.82,6.95-45.69,19.86-45.69,19.86,0,0-17.96-7.98-53.68-22.8v-214.34H16.23c4.35-24.1,11.54-54.46,16.11-104.48H193.76V16.18c17.37-1.6,35.4-2.79,53.77-3.39,19-.62,37.81-.22,56.04,.9V245.18h165.25c3.22,42.96,8.31,84.12,12,106.26Z"/><path class="d" d="M20.02,46.56s20.86,78.46,13.9,178.76S9.1,355.41,13.07,395.14s9.14,100.48,74.48,126.12c106.26,41.71,159.89,65.54,159.89,65.54,0,0,19.86-12.91,45.68-19.86s132.41-38.34,159.89-75.48c36.74-49.66,34.76-98.32,27.81-140.03s-18.87-150.95-13.9-212.52,15.64-92.36,15.64-92.36c0,0-113.78-37.74-235.03-33.77S20.02,46.56,20.02,46.56Z"/></svg>